<svg width="28" height="28" viewBox="0 0 28 28" fill="none" xmlns="http://www.w3.org/2000/svg">
<path d="M14.001 2C20.6284 2 26.001 7.37258 26.001 14C26.001 20.6274 20.6284 26 14.001 26C7.37356 26 2.00098 20.6274 2.00098 14C2.00098 7.37258 7.37356 2 14.001 2ZM14.001 4C8.47813 4 4.00098 8.47715 4.00098 14C4.00098 19.5228 8.47813 24 14.001 24C19.5238 24 24.001 19.5228 24.001 14C24.001 8.47715 19.5238 4 14.001 4ZM18.291 10.29C18.6815 9.89948 19.3205 9.89948 19.711 10.29C20.1015 10.6805 20.1015 11.3195 19.711 11.71L12.7081 18.7071C12.3176 19.0976 11.6844 19.0976 11.2939 18.7071L7.79387 15.2071C7.40335 14.8166 7.40335 14.1834 7.79387 13.7929C8.18439 13.4024 8.81756 13.4024 9.20808 13.7929L12.001 16.5858L18.291 10.29Z" fill="#00AB56"/>
</svg>
