<svg width="28" height="28" viewBox="0 0 28 28" fill="none" xmlns="http://www.w3.org/2000/svg">
<path fill-rule="evenodd" clip-rule="evenodd" d="M6.36612 6.36612C6.85427 5.87796 7.64573 5.87796 8.13388 6.36612L14 12.2322L19.8661 6.36612C20.3543 5.87796 21.1457 5.87796 21.6339 6.36612C22.122 6.85427 22.122 7.64573 21.6339 8.13388L15.7678 14L21.6339 19.8661C22.122 20.3543 22.122 21.1457 21.6339 21.6339C21.1457 22.122 20.3543 22.122 19.8661 21.6339L14 15.7678L8.13388 21.6339C7.64573 22.122 6.85427 22.122 6.36612 21.6339C5.87796 21.1457 5.87796 20.3543 6.36612 19.8661L12.2322 14L6.36612 8.13388C5.87796 7.64573 5.87796 6.85427 6.36612 6.36612Z" fill="#A6A6B0"/>
</svg>
